<svg width="24" height="24" viewBox="0 0 16 16" fill="none" xmlns="http://www.w3.org/2000/svg">
<g clip-path="url(#clip0_9_197955)">
<path d="M12.854 0.145905C12.7602 0.0521694 12.6331 -0.000488281 12.5005 -0.000488281C12.3679 -0.000488281 12.2408 0.0521694 12.147 0.145905L10.5 1.7929L14.207 5.49991L15.854 3.8539C15.9006 3.80746 15.9375 3.75228 15.9627 3.69154C15.9879 3.63079 16.0009 3.56567 16.0009 3.4999C16.0009 3.43414 15.9879 3.36902 15.9627 3.30827C15.9375 3.24753 15.9006 3.19235 15.854 3.1459L12.854 0.145905ZM13.5 6.2069L9.793 2.4999L3.293 8.9999H3.5C3.63261 8.9999 3.75978 9.05258 3.85355 9.14635C3.94732 9.24012 4 9.3673 4 9.4999V9.9999H4.5C4.63261 9.9999 4.75978 10.0526 4.85355 10.1464C4.94732 10.2401 5 10.3673 5 10.4999V10.9999H5.5C5.63261 10.9999 5.75978 11.0526 5.85355 11.1464C5.94732 11.2401 6 11.3673 6 11.4999V11.9999H6.5C6.63261 11.9999 6.75978 12.0526 6.85355 12.1464C6.94732 12.2401 7 12.3673 7 12.4999V12.7069L13.5 6.2069ZM6.032 13.6749C6.01095 13.619 6.00012 13.5597 6 13.4999V12.9999H5.5C5.36739 12.9999 5.24021 12.9472 5.14644 12.8535C5.05268 12.7597 5 12.6325 5 12.4999V11.9999H4.5C4.36739 11.9999 4.24021 11.9472 4.14644 11.8535C4.05268 11.7597 4 11.6325 4 11.4999V10.9999H3.5C3.36739 10.9999 3.24021 10.9472 3.14644 10.8535C3.05268 10.7597 3 10.6325 3 10.4999V9.9999H2.5C2.44022 9.99981 2.38094 9.98897 2.325 9.96791L2.146 10.1459C2.09835 10.1939 2.06093 10.251 2.036 10.3139L0.0359968 15.3139C-0.000373859 15.4048 -0.00927736 15.5043 0.0103901 15.6002C0.0300575 15.6961 0.077431 15.7841 0.146638 15.8533C0.215844 15.9225 0.30384 15.9698 0.399716 15.9895C0.495593 16.0092 0.595133 16.0003 0.685997 15.9639L5.686 13.9639C5.74886 13.939 5.80601 13.9016 5.854 13.8539L6.032 13.6759V13.6749Z" fill="#893BDB"/>
</g>
<defs>
<clipPath id="clip0_9_197955">
<rect width="24" height="24" fill="white"/>
</clipPath>
</defs>
</svg>
